# xmcd
#
# Track frame offsets:
#	182
#	10597
#	22375
#	35302
#	47200
#	58665
#	74642
#	86632
#	100857
#	113240
#	126935
#	138207
#	149257
#	161522
#	173200
#	184607
#
# Disc length: 2615 seconds
# Revision: 3
# Processed by: cddbd v1.5.2PL0 Copyright (c) Steve Scherf et al.
# Submitted via: dBpowerAMP V12.0
#
DISCID=e00a3510
DTITLE=John Lee Hooker - Don't Turn Me From Your Door [Atco 7 82365-2]
DYEAR=1992
DGENRE=Blues
TTITLE0=Stuttering Blues
TTITLE1=Pouring Down Rain
TTITLE2=You Lost A Good Man
TTITLE3=Love My Baby
TTITLE4=Misbelieving Baby
TTITLE5=Drifting Blues
TTITLE6=Wobbling Baby
TTITLE7=Goin' South
TTITLE8=Don't Turn Me From Your Door
TTITLE9=My Baby Don't Love Me
TTITLE10=I Ain't Got Nobody
TTITLE11=Real Real Gone
TTITLE12=Guitar Lovin' Man
TTITLE13=Talk About Your Baby
TTITLE14=Blue Monday
TTITLE15=My Baby Put Me Down
EXTD=
EXTT0=
EXTT1=
EXTT2=
EXTT3=
EXTT4=
EXTT5=
EXTT6=
EXTT7=
EXTT8=
EXTT9=
EXTT10=
EXTT11=
EXTT12=
EXTT13=
EXTT14=
EXTT15=
PLAYORDER=
